<?xml version="1.0" encoding="utf-8"?>
<!-- Generator: Adobe Illustrator 28.0.0, SVG Export Plug-In . SVG Version: 6.00 Build 0)  -->
<svg version="1.1" id="Capa_1" xmlns="http://www.w3.org/2000/svg" xmlns:xlink="http://www.w3.org/1999/xlink" x="0px" y="0px"
	 viewBox="0 0 500 500" style="enable-background:new 0 0 500 500;" xml:space="preserve">
<style type="text/css">
	.st0{fill:#FFFFFF;}
	.st1{fill:#36BFB7;}
	.st2{fill:#A8A8A8;}
</style>
<g>
	<path class="st0" d="M61.6,146.35C123.86,108.3,186.36,70.6,248.9,33c54.64,32.74,109.07,65.8,163.54,98.82
		c-7.79,5.8-15.56,11.64-23.36,17.44c-46.61-28.37-93.32-56.58-140.1-84.68c-53.47,32.21-106.9,64.48-160.18,97.01
		c0.03,46.79-0.01,93.58,0.06,140.36c-9.07,6.71-17.99,13.61-27.06,20.34C61.6,263.64,61.91,205,61.6,146.35z"/>
</g>
<path class="st1" d="M109.52,172.85c46.46-28.13,92.93-56.25,139.39-84.37c40.84,24.73,81.75,49.33,122.61,74.01
	c-7.89,5.79-15.65,11.73-23.51,17.55c-33.05-19.99-66.04-40.08-99.07-60.1c-37.4,22.76-74.86,45.42-112.23,68.19
	c-0.05,25.9,0.08,51.82-0.09,77.72c-8.35,7.46-18.12,13.59-27.02,20.53C109.48,248.55,109.66,210.7,109.52,172.85z"/>
<path class="st2" d="M157.43,199.75c30.51-18.47,60.95-37.04,91.52-55.43c27.05,16.2,54.02,32.56,80.92,49.04
	c-7.69,5.91-15.46,11.7-23.24,17.49c-19.19-11.71-38.41-23.38-57.66-35.01c-21.71,13.07-43.43,26.17-65.17,39.21
	c-0.1,5.27-0.15,10.53-0.18,15.8c-8.5,6.76-17.34,13.08-26.05,19.54C157.09,233.51,157.48,216.63,157.43,199.75z"/>
<path class="st0" d="M423.26,113.62c22.92-1.57,45.82-3.31,68.74-4.87c-8.63,22.07-16.92,44.26-25.8,66.22
	c-4.71-6.59-9.35-13.23-13.98-19.86c-60.32,44.6-120.15,89.88-180.45,134.53c-15.34-12.48-31.09-24.43-46.54-36.76
	c-43.88,32.41-87.32,65.41-131.18,97.85c51.68,30.91,103.28,61.95,154.96,92.83c53.32-31.88,106.55-63.88,159.93-95.66
	c0-47.28-0.13-94.58,0.04-141.87c9.26-6.37,17.91-13.56,27.07-20.08c-0.14,59.12,0.05,118.23-0.11,177.35
	c-62.32,37.29-124.62,74.64-186.96,111.93c-43.97-26.23-87.85-52.61-131.78-78.92c-18.51-11.22-37.24-22.1-55.59-33.58
	c0.16-7.12,0.25-14.25,0.04-21.37c54.61-41.04,109.28-82.03,163.91-123.03c15.65,12.3,31.26,24.66,46.89,37.03
	c54.76-40.77,109.2-82,164.05-122.66C432.13,126.3,427.57,120.03,423.26,113.62z"/>
<path class="st1" d="M361.05,242.28c9.02-6.96,18.09-13.83,27.21-20.63c0.03,38.21,0.01,76.43,0.01,114.64
	c-46.49,27.78-92.88,55.68-139.39,83.4c-40.96-24.68-82.15-49-123-73.89c7.79-5.81,15.4-11.85,23.26-17.55
	c33.18,20.1,66.51,39.94,99.79,59.91c37.39-22.33,74.74-44.74,112.09-67.13C360.95,294.78,361.03,268.52,361.05,242.28z"/>
<g>
	<path class="st2" d="M313.87,276.94c8.82-6.73,17.79-13.26,26.6-20c0,17.47,0,34.95-0.08,52.42
		c-30.48,18.34-61.04,36.56-91.49,54.98c-27.28-16.34-54.54-32.71-81.66-49.3c7.79-5.69,15.41-11.61,23.27-17.2
		c19.49,11.69,38.91,23.48,58.46,35.06c21.64-12.98,43.23-26.07,64.92-38.95C313.94,288.28,313.89,282.6,313.87,276.94z"/>
</g>
</svg>
