<?xml version="1.0" encoding="utf-8"?>
<!-- Generator: Adobe Illustrator 28.0.0, SVG Export Plug-In . SVG Version: 6.00 Build 0)  -->
<svg version="1.1" id="Capa_1" xmlns="http://www.w3.org/2000/svg" xmlns:xlink="http://www.w3.org/1999/xlink" x="0px" y="0px"
	 viewBox="0 0 32 32" style="enable-background:new 0 0 32 32;" xml:space="preserve">
<style type="text/css">
	.st0{fill:#E4F2F1;}
	.st1{display:none;}
	.st2{display:inline;}
	.st3{fill:#FFFFFF;}
	.st4{fill:#FFFFFF;fill-opacity:0.9;}
	.st5{fill:#FFFFFF;fill-opacity:0.7;}
	.st6{fill:#1E4472;}
	.st7{fill:#36BFB7;}
	.st8{fill:#A8A8A8;}
</style>
<path class="st0" d="M0,8.4C0,3.8,3.8,0,8.4,0h15.2C28.2,0,32,3.8,32,8.4v15.2c0,4.7-3.8,8.4-8.4,8.4H8.4C3.8,32,0,28.2,0,23.6V8.4z
	"/>
<g class="st1">
	<g class="st2">
		<path class="st3" d="M8.4,8.4c0-0.9,0.8-1.7,1.7-1.7s1.7,0.8,1.7,1.7v15.2c0,0.9-0.8,1.7-1.7,1.7s-1.7-0.8-1.7-1.7V8.4z"/>
	</g>
	<g class="st2">
		<path shape-rendering="crispEdges" class="st4" d="M14.7,15.2c0-0.9,0.8-1.7,1.7-1.7s1.7,0.8,1.7,1.7v8.4c0,0.9-0.8,1.7-1.7,1.7
			c-0.9,0-1.7-0.8-1.7-1.7V15.2z"/>
	</g>
	<g class="st2">
		<path shape-rendering="crispEdges" class="st5" d="M21.1,10.9c0-0.9,0.8-1.7,1.7-1.7c0.9,0,1.7,0.8,1.7,1.7v12.6
			c0,0.9-0.8,1.7-1.7,1.7c-0.9,0-1.7-0.8-1.7-1.7V10.9z"/>
	</g>
</g>
<g>
	<g>
		<path class="st6" d="M5.5,10.27c3.31-2.02,6.64-4.03,9.97-6.03c2.91,1.74,5.8,3.5,8.7,5.26c-0.41,0.31-0.83,0.62-1.24,0.93
			c-2.48-1.51-4.97-3.01-7.45-4.51c-2.85,1.71-5.69,3.43-8.52,5.16c0,2.49,0,4.98,0,7.47c-0.48,0.36-0.96,0.72-1.44,1.08
			C5.5,16.51,5.51,13.39,5.5,10.27z"/>
	</g>
	<path class="st7" d="M8.05,11.68c2.47-1.5,4.94-2.99,7.42-4.49c2.17,1.32,4.35,2.62,6.52,3.94c-0.42,0.31-0.83,0.62-1.25,0.93
		c-1.76-1.06-3.51-2.13-5.27-3.2c-1.99,1.21-3.98,2.42-5.97,3.63c0,1.38,0,2.76,0,4.14c-0.44,0.4-0.96,0.72-1.44,1.09
		C8.04,15.7,8.05,13.69,8.05,11.68z"/>
	<path class="st8" d="M10.6,13.11c1.62-0.98,3.24-1.97,4.87-2.95c1.44,0.86,2.87,1.73,4.31,2.61c-0.41,0.31-0.82,0.62-1.24,0.93
		c-1.02-0.62-2.04-1.24-3.07-1.86c-1.16,0.7-2.31,1.39-3.47,2.09c-0.01,0.28-0.01,0.56-0.01,0.84c-0.45,0.36-0.92,0.7-1.39,1.04
		C10.58,14.9,10.6,14.01,10.6,13.11z"/>
	<path class="st6" d="M24.74,8.52c1.22-0.08,2.44-0.18,3.66-0.26c-0.46,1.17-0.9,2.36-1.37,3.52c-0.25-0.35-0.5-0.7-0.74-1.06
		c-3.21,2.37-6.39,4.78-9.6,7.16c-0.82-0.66-1.65-1.3-2.48-1.96c-2.33,1.72-4.65,3.48-6.98,5.21c2.75,1.64,5.5,3.3,8.25,4.94
		c2.84-1.7,5.67-3.4,8.51-5.09c0-2.52-0.01-5.03,0-7.55c0.49-0.34,0.95-0.72,1.44-1.07c-0.01,3.15,0,6.29-0.01,9.44
		c-3.32,1.98-6.63,3.97-9.95,5.96c-2.34-1.4-4.67-2.8-7.01-4.2c-0.98-0.6-1.98-1.18-2.96-1.79c0.01-0.38,0.01-0.76,0-1.14
		c2.91-2.18,5.81-4.36,8.72-6.55c0.83,0.65,1.66,1.31,2.49,1.97c2.91-2.17,5.81-4.36,8.73-6.53C25.21,9.2,24.97,8.87,24.74,8.52z"/>
	<path class="st7" d="M21.43,15.37c0.48-0.37,0.96-0.74,1.45-1.1c0,2.03,0,4.07,0,6.1c-2.47,1.48-4.94,2.96-7.42,4.44
		c-2.18-1.31-4.37-2.61-6.54-3.93c0.41-0.31,0.82-0.63,1.24-0.93c1.77,1.07,3.54,2.13,5.31,3.19c1.99-1.19,3.98-2.38,5.96-3.57
		C21.43,18.16,21.43,16.77,21.43,15.37z"/>
	<g>
		<path class="st8" d="M18.92,17.21c0.47-0.36,0.95-0.71,1.42-1.06c0,0.93,0,1.86,0,2.79c-1.62,0.98-3.25,1.95-4.87,2.93
			c-1.45-0.87-2.9-1.74-4.35-2.62c0.41-0.3,0.82-0.62,1.24-0.92c1.04,0.62,2.07,1.25,3.11,1.87c1.15-0.69,2.3-1.39,3.45-2.07
			C18.92,17.82,18.92,17.52,18.92,17.21z"/>
	</g>
</g>
</svg>
